<?xml version="1.0" standalone="no"?>
<!DOCTYPE svg PUBLIC "-//W3C//DTD SVG 20010904//EN"
 "http://www.w3.org/TR/2001/REC-SVG-20010904/DTD/svg10.dtd">
<svg version="1.0" xmlns="http://www.w3.org/2000/svg"
 width="512.000000pt" height="512.000000pt" viewBox="0 0 512.000000 512.000000"
 preserveAspectRatio="xMidYMid meet">
<metadata>
Created by potrace 1.16, written by Peter Selinger 2001-2019
</metadata>
<g transform="translate(0.000000,512.000000) scale(0.100000,-0.100000)"
fill="#000000" stroke="none">
<path d="M640 3200 l0 -1360 749 0 c819 0 833 -1 970 -58 94 -40 185 -106 264
-193 47 -52 70 -70 86 -67 18 3 2 29 -120 198 -182 253 -183 256 -184 351 0
67 3 81 30 125 18 29 50 61 77 79 l47 30 0 996 1 995 -27 34 c-58 72 -130 132
-198 166 -136 66 -110 64 -942 64 l-753 0 0 -1360z m1175 1175 c22 -21 25 -33
25 -101 l0 -77 64 61 c98 94 98 94 273 -81 175 -175 175 -175 81 -273 l-61
-64 77 0 c68 0 80 -3 101 -25 25 -24 25 -26 25 -215 0 -189 0 -191 -25 -215
-21 -22 -33 -25 -101 -25 l-77 0 61 -64 c94 -98 94 -98 -81 -273 -175 -175
-175 -175 -273 -81 l-64 61 0 -77 c0 -68 -3 -80 -25 -101 -24 -25 -26 -25
-215 -25 -189 0 -191 0 -215 25 -22 21 -25 33 -25 101 l0 77 -64 -61 c-98 -94
-98 -94 -273 81 -175 175 -175 175 -81 273 l61 64 -77 0 c-68 0 -80 3 -101 25
-25 24 -25 26 -25 215 0 189 0 191 25 215 21 22 33 25 101 25 l77 0 -61 64
c-94 98 -94 98 81 273 175 175 175 175 273 81 l64 -61 0 77 c0 68 3 80 25 101
24 25 26 25 215 25 189 0 191 0 215 -25z m-400 -1760 c25 -24 25 -26 25 -215
0 -189 0 -191 -25 -215 l-24 -25 -271 0 -271 0 -24 25 c-25 24 -25 26 -25 215
0 189 0 191 25 215 l24 25 271 0 271 0 24 -25z m960 0 c16 -15 25 -36 25 -55
0 -19 -9 -40 -25 -55 l-24 -25 -351 0 -351 0 -24 25 c-16 15 -25 36 -25 55 0
19 9 40 25 55 l24 25 351 0 351 0 24 -25z m0 -320 c16 -15 25 -36 25 -55 0
-19 -9 -40 -25 -55 l-24 -25 -351 0 -351 0 -24 25 c-16 15 -25 36 -25 55 0 19
9 40 25 55 l24 25 351 0 351 0 24 -25z"/>
<path d="M1520 4176 c0 -79 -14 -98 -95 -131 -89 -37 -107 -34 -171 27 l-55
52 -61 -62 -62 -61 52 -55 c61 -64 64 -82 27 -171 -33 -81 -52 -95 -131 -95
l-64 0 0 -80 0 -80 64 0 c79 0 98 -14 131 -95 37 -89 34 -107 -27 -171 l-52
-55 62 -61 61 -62 55 52 c64 61 82 64 171 27 81 -33 95 -52 95 -131 l0 -64 80
0 80 0 0 64 c0 79 14 98 95 131 89 37 107 34 171 -27 l55 -52 61 62 62 61 -52
55 c-61 64 -64 82 -27 171 33 81 52 95 131 95 l64 0 0 80 0 80 -64 0 c-79 0
-98 14 -131 95 -37 89 -34 107 27 171 l52 55 -62 61 -61 62 -55 -52 c-64 -61
-82 -64 -171 -27 -81 33 -95 52 -95 131 l0 64 -80 0 -80 0 0 -64z m219 -290
c64 -33 114 -83 148 -149 23 -45 27 -64 27 -137 0 -73 -4 -92 -27 -137 -34
-66 -84 -116 -150 -150 -44 -23 -65 -27 -137 -27 -74 -1 -92 3 -137 27 -67 35
-116 84 -150 150 -23 45 -27 64 -27 137 0 73 4 92 27 137 45 86 123 151 212
174 55 15 159 2 214 -25z"/>
<path d="M1532 3743 c-18 -9 -45 -32 -60 -51 -39 -51 -38 -134 0 -184 70 -92
192 -89 262 6 16 20 21 42 21 85 0 48 -5 64 -29 95 -48 63 -126 83 -194 49z"/>
<path d="M960 2400 l0 -80 160 0 160 0 0 80 0 80 -160 0 -160 0 0 -80z"/>
<path d="M3070 4544 c-130 -35 -227 -98 -314 -202 l-36 -44 0 -996 1 -997 38
-18 c21 -10 75 -58 124 -110 47 -50 137 -146 201 -212 l115 -120 1 478 0 477
-135 0 c-131 0 -137 1 -160 25 -33 32 -33 78 0 110 23 24 29 25 160 25 l135 0
0 58 c0 31 3 67 6 80 l6 22 -141 0 c-137 0 -143 1 -166 25 -33 32 -33 78 0
110 l24 25 671 0 671 0 24 -25 c16 -15 25 -36 25 -55 0 -19 -9 -40 -25 -55
l-24 -25 -302 0 -301 0 6 -22 c3 -13 6 -49 6 -80 l0 -58 295 0 296 0 24 -25
c33 -32 33 -78 0 -110 l-24 -25 -296 0 -295 0 0 -165 0 -164 50 6 c97 11 196
-41 241 -128 l19 -39 55 6 c101 12 200 -38 244 -124 l19 -36 86 -1 86 0 0
1203 0 1202 -677 -1 c-565 0 -687 -3 -733 -15z m425 -329 c25 -24 25 -26 25
-215 0 -189 0 -191 -25 -215 l-24 -25 -271 0 -271 0 -24 25 c-25 24 -25 26
-25 215 0 189 0 191 25 215 l24 25 271 0 271 0 24 -25z m800 0 c16 -15 25 -36
25 -55 0 -19 -9 -40 -25 -55 l-24 -25 -271 0 -271 0 -24 25 c-16 15 -25 36
-25 55 0 19 9 40 25 55 l24 25 271 0 271 0 24 -25z m0 -320 c16 -15 25 -36 25
-55 0 -19 -9 -40 -25 -55 l-24 -25 -271 0 -271 0 -24 25 c-16 15 -25 36 -25
55 0 19 9 40 25 55 l24 25 271 0 271 0 24 -25z m0 -320 c16 -15 25 -36 25 -55
0 -19 -9 -40 -25 -55 l-24 -25 -511 0 -511 0 -24 25 c-16 15 -25 36 -25 55 0
19 9 40 25 55 l24 25 511 0 511 0 24 -25z"/>
<path d="M3040 4000 l0 -80 160 0 160 0 0 80 0 80 -160 0 -160 0 0 -80z"/>
<path d="M320 2800 l0 -1600 1291 0 1290 0 -6 23 c-4 12 -19 47 -34 77 l-28
55 -1157 5 -1158 5 -19 24 c-19 23 -19 61 -19 1517 l0 1494 -80 0 -80 0 0
-1600z"/>
<path d="M4640 2838 c0 -860 -3 -1580 -6 -1600 l-7 -38 87 0 86 0 0 1600 0
1600 -80 0 -80 0 0 -1562z"/>
<path d="M3385 3095 l-25 -24 0 -671 0 -671 -25 -24 c-22 -22 -32 -25 -105
-25 -45 0 -89 4 -99 9 -9 5 -113 111 -230 235 -230 243 -249 257 -300 219 -31
-24 -46 -61 -38 -94 5 -18 145 -224 194 -284 17 -22 203 -304 203 -309 0 -3
13 -27 29 -53 42 -69 67 -152 95 -314 32 -187 68 -264 172 -366 133 -129 236
-163 505 -163 270 0 370 33 505 165 101 100 135 173 179 389 l35 169 0 334 0
334 -25 24 c-15 16 -36 25 -55 25 -19 0 -40 -9 -55 -25 -24 -23 -25 -31 -25
-135 0 -104 -1 -112 -25 -135 -32 -33 -78 -33 -110 0 -25 24 -25 26 -25 215 0
189 0 191 -25 215 -15 16 -36 25 -55 25 -19 0 -40 -9 -55 -25 -25 -24 -25 -26
-25 -215 0 -189 0 -191 -25 -215 -32 -33 -78 -33 -110 0 l-25 24 0 271 0 271
-25 24 c-32 33 -78 33 -110 0 l-25 -24 0 -271 0 -271 -25 -24 c-32 -33 -78
-33 -110 0 l-25 24 0 671 0 671 -25 24 c-15 16 -36 25 -55 25 -19 0 -40 -9
-55 -25z"/>
<path d="M640 1600 l0 -80 910 0 c501 0 910 3 910 8 -1 21 -117 90 -209 126
-55 21 -68 21 -833 24 l-778 3 0 -81z"/>
</g>
</svg>
