<!DOCTYPE svg PUBLIC "-//W3C//DTD SVG 1.1//EN" "http://www.w3.org/Graphics/SVG/1.1/DTD/svg11.dtd">
<!-- Uploaded to: SVG Repo, www.svgrepo.com, Transformed by: SVG Repo Mixer Tools -->
<svg width="800px" height="800px" viewBox="0 0 16 16" xmlns="http://www.w3.org/2000/svg" fill="#000000">
<g id="SVGRepo_bgCarrier" stroke-width="0"/>
<g id="SVGRepo_tracerCarrier" stroke-linecap="round" stroke-linejoin="round"/>
<g id="SVGRepo_iconCarrier"> <path d="M14.652 3.555A8 8 0 108 16a1 1 0 100-2 6 6 0 116-6 1 1 0 102 0 8 8 0 00-1.348-4.445z" fill="#e92525"/> <path d="M13 11.586l-1.293-1.293a1 1 0 10-1.414 1.414L11.586 13l-1.293 1.293a1 1 0 101.414 1.414L13 14.414l1.293 1.293a1 1 0 001.414-1.414L14.414 13l1.293-1.293a1 1 0 00-1.414-1.414L13 11.586zm-2.707-6.293L7 8.586 5.707 7.293l-.094-.083a1 1 0 00-1.32 1.497l2 2 .094.083a1 1 0 001.32-.083l4-4 .083-.094a1 1 0 00-1.497-1.32z" fill="#e92525"/> </g>
</svg>