<?xml version="1.0" standalone="no"?>
<!DOCTYPE svg PUBLIC "-//W3C//DTD SVG 20010904//EN"
 "http://www.w3.org/TR/2001/REC-SVG-20010904/DTD/svg10.dtd">
<svg version="1.0" xmlns="http://www.w3.org/2000/svg"
 width="3508.000000pt" height="2480.000000pt" viewBox="0 0 3508.000000 2480.000000"
 preserveAspectRatio="xMidYMid meet">

<g transform="translate(0.000000,2480.000000) scale(0.100000,-0.100000)"
fill="#117042" stroke="none">
<path d="M21280 22273 c-25 -26 -35 -45 -35 -67 l0 -31 -70 3 c-80 3 -185 20
-205 32 -12 7 -11 12 5 29 10 12 16 23 14 25 -9 8 -139 26 -188 26 -60 0 -101
-18 -153 -68 -29 -28 -38 -44 -38 -69 0 -32 -4 -36 -72 -68 -40 -19 -86 -37
-103 -39 -256 -38 -255 -37 -292 -81 -44 -51 -68 -64 -119 -65 -46 0 -76 17
-177 103 -36 30 -80 60 -98 66 -27 9 -459 29 -749 34 -55 1 -96 -13 -180 -64
-32 -19 -45 -20 -141 -14 -87 5 -114 3 -149 -11 -36 -15 -50 -16 -87 -6 -79
22 -94 17 -169 -49 -38 -34 -88 -74 -112 -91 -43 -29 -43 -29 -90 -14 -92 31
-129 30 -252 -2 -151 -40 -191 -46 -200 -32 -5 7 -26 6 -73 -5 -45 -10 -110
-15 -195 -14 -81 1 -138 -3 -157 -11 -16 -6 -61 -16 -99 -21 -71 -9 -86 -16
-180 -83 -47 -33 -66 -40 -123 -45 -51 -5 -86 -16 -141 -44 -116 -61 -174 -97
-217 -136 -22 -21 -55 -46 -73 -56 -17 -11 -32 -26 -32 -35 0 -67 -50 -142
-106 -160 -35 -12 -37 -11 -75 26 -36 35 -44 38 -97 39 -31 0 -76 -6 -99 -14
-36 -12 -43 -19 -54 -58 -6 -25 -19 -47 -27 -51 -8 -3 -43 2 -78 11 -77 21
-110 21 -118 2 -3 -9 -25 -24 -48 -34 -55 -24 -254 -166 -274 -196 -8 -13 -16
-44 -18 -70 -3 -48 -15 -64 -51 -65 -31 -1 -97 -34 -135 -68 -68 -63 -170 -94
-296 -92 -131 2 -156 1 -170 -11 -10 -8 -14 -37 -14 -100 0 -87 1 -90 35 -127
19 -21 52 -47 73 -56 22 -10 45 -28 51 -39 7 -12 27 -32 46 -44 31 -21 34 -26
40 -98 5 -48 16 -94 30 -122 l23 -45 -20 -34 c-20 -34 -20 -36 -2 -107 9 -39
26 -91 37 -115 23 -53 24 -107 3 -187 -9 -32 -16 -76 -16 -96 0 -20 -7 -42
-15 -49 -8 -7 -17 -28 -21 -47 -9 -46 13 -92 60 -123 20 -14 36 -30 36 -36 0
-6 -9 -37 -21 -70 -17 -50 -20 -74 -15 -153 6 -103 16 -125 75 -177 35 -31 35
-31 13 -43 -19 -10 -22 -20 -22 -67 0 -44 6 -64 28 -97 15 -23 45 -77 66 -119
l39 -78 41 0 c33 0 53 -9 98 -43 l56 -43 -34 -19 c-33 -18 -74 -83 -74 -118 0
-9 -8 -25 -17 -35 -22 -21 -47 -88 -38 -102 9 -15 -22 -13 -184 14 -214 35
-324 47 -436 48 -138 2 -387 -11 -463 -24 -55 -9 -67 -15 -97 -51 -19 -22 -37
-56 -41 -76 -15 -91 -18 -95 -70 -114 -27 -10 -104 -29 -172 -42 -122 -24
-122 -24 -165 -5 -103 47 -220 5 -247 -89 -6 -20 -13 -84 -17 -143 -5 -91 -4
-108 9 -113 13 -5 14 -14 2 -68 -15 -69 -9 -143 13 -169 9 -9 37 -24 64 -33
27 -9 51 -20 54 -25 8 -13 -81 -25 -171 -23 l-80 2 -68 -59 c-37 -33 -86 -70
-109 -81 -23 -12 -53 -30 -68 -40 -14 -10 -53 -20 -90 -24 -69 -7 -259 -62
-343 -99 -63 -28 -77 -45 -171 -207 l-74 -126 -118 -74 -118 -73 -179 -17
c-149 -13 -188 -14 -228 -3 -43 11 -52 10 -89 -7 -39 -19 -43 -19 -115 -3 -62
13 -80 14 -105 4 -37 -16 -58 -55 -66 -121 -3 -28 -13 -60 -23 -71 l-16 -21
-95 31 c-121 41 -233 64 -267 56 -64 -15 -201 -96 -237 -139 l-36 -44 -62 2
c-58 2 -68 -1 -142 -45 -45 -26 -113 -72 -152 -102 -46 -34 -97 -62 -139 -76
-41 -14 -113 -53 -183 -100 -123 -81 -195 -126 -274 -170 -26 -15 -55 -37 -63
-49 -16 -22 -27 -114 -59 -506 -8 -99 -19 -216 -25 -260 -19 -154 -44 -420
-45 -469 l0 -49 240 -190 c132 -104 407 -318 610 -475 204 -157 445 -344 536
-416 180 -143 572 -447 869 -676 104 -80 264 -204 357 -277 92 -72 332 -259
533 -414 201 -155 415 -321 475 -369 61 -47 272 -212 470 -365 198 -153 420
-326 494 -384 73 -58 186 -146 250 -195 293 -225 655 -506 741 -576 100 -80
917 -714 1400 -1086 432 -332 410 -313 411 -354 3 -60 -2 -100 -17 -136 -18
-43 -18 -74 2 -124 l16 -40 69 0 c48 0 70 -4 76 -14 13 -23 78 -56 155 -80
l73 -22 6 -45 c4 -25 14 -60 23 -77 20 -38 94 -97 144 -113 19 -6 46 -24 59
-39 23 -28 25 -28 171 -46 36 -4 56 -1 86 15 21 11 43 18 47 15 5 -2 22 -34
39 -69 24 -51 40 -70 73 -89 72 -41 187 -74 298 -86 126 -12 140 -16 248 -66
l84 -38 -7 -115 c-5 -95 -3 -120 9 -135 8 -11 15 -27 15 -36 0 -21 -32 -82
-66 -127 -35 -46 -53 -97 -53 -148 -1 -35 4 -43 34 -63 19 -12 38 -22 41 -22
17 0 107 -76 120 -102 15 -28 18 -30 67 -25 29 3 81 12 115 21 78 20 559 123
1012 216 657 135 875 181 909 192 37 12 184 145 601 548 135 129 362 348 505
486 l260 250 320 226 c589 414 1937 1360 2190 1537 138 95 385 269 550 386
165 116 333 232 373 258 l72 47 0 47 c0 31 -6 54 -18 67 -21 23 -192 318 -192
330 0 20 -192 325 -212 338 -37 24 -650 198 -696 198 -12 0 -67 -18 -122 -40
l-100 -41 -36 27 c-43 33 -54 53 -54 97 0 47 -30 81 -94 107 l-54 23 -5 61
c-3 33 -11 122 -18 197 l-12 136 -257 339 -257 339 29 39 c15 21 28 47 28 56
0 13 38 35 138 80 75 35 141 66 145 70 13 11 18 350 7 386 -6 17 -28 47 -49
66 -35 31 -39 41 -46 99 -4 35 -16 91 -27 124 -23 71 -19 101 23 160 23 31 30
52 28 76 -2 19 0 39 3 44 3 6 20 64 38 129 l33 119 -81 162 -81 163 19 93 c39
200 33 561 -14 739 -27 103 -195 431 -303 592 -38 57 -72 108 -76 114 -4 7 15
25 49 45 55 34 56 34 50 74 -3 22 -33 141 -66 265 -106 388 -352 1276 -372
1338 -9 29 -44 56 -273 207 -295 194 -265 160 -280 310 -9 93 -21 121 -103
246 l-77 117 -55 12 c-30 7 -92 26 -137 42 l-82 29 1 68 c0 78 -22 139 -75
205 -46 57 -46 56 -73 157 -24 90 -30 164 -16 185 4 6 45 31 91 56 70 39 80
47 62 53 l-22 7 26 30 c25 30 28 37 42 118 8 43 11 46 76 80 70 36 183 127
204 164 7 11 12 33 13 47 0 15 8 37 19 50 18 23 18 28 4 84 -14 60 -14 61 20
160 19 55 46 127 60 160 43 104 44 99 -14 135 -49 32 -51 35 -45 69 3 20 9 75
12 123 l7 87 -42 82 c-38 76 -41 88 -41 164 0 45 12 149 26 231 26 155 26 233
0 270 -12 16 -9 23 31 58 35 33 46 50 50 83 4 31 11 43 27 47 11 3 36 18 55
34 31 26 35 34 35 78 -1 54 -41 147 -69 158 -29 11 -78 6 -134 -13 -48 -17
-58 -18 -94 -5 -56 20 -63 19 -198 -26 -67 -22 -125 -40 -129 -40 -5 0 -30 18
-56 40 -25 23 -72 54 -103 69 -31 15 -72 36 -91 47 -27 14 -59 19 -145 21
l-110 1 -35 -35z m-4200 -3133 c75 -177 133 -351 160 -479 53 -246 0 -482
-192 -869 -39 -79 -75 -139 -79 -135 -14 15 -140 274 -175 361 -52 129 -93
275 -106 378 -10 78 -9 107 6 198 29 181 116 436 231 681 l47 100 25 -50 c15
-27 52 -111 83 -185z m-793 -788 c334 -168 473 -336 598 -722 20 -63 52 -180
70 -259 19 -79 36 -145 38 -147 2 -2 9 35 16 83 27 195 86 416 146 548 87 191
234 339 455 458 119 64 187 90 193 73 3 -7 8 -57 12 -112 15 -222 -43 -446
-159 -607 -103 -145 -311 -307 -531 -413 l-110 -54 -90 34 c-135 51 -179 71
-284 133 -132 77 -184 118 -267 205 -108 113 -171 243 -209 424 -21 101 -35
281 -28 361 7 72 -5 72 150 -5z m-117 -939 c283 -116 505 -308 604 -524 58
-127 145 -421 212 -718 3 -13 7 -22 9 -20 2 2 10 58 19 124 38 283 63 372 148
540 59 115 111 188 202 283 116 121 228 202 401 288 l150 74 8 -57 c27 -193
-41 -530 -145 -723 -139 -254 -375 -445 -676 -545 l-79 -26 -111 21 c-133 25
-197 46 -300 99 -182 95 -353 273 -452 470 -24 48 -38 99 -55 200 -23 133 -65
481 -65 535 0 32 0 32 130 -21z m3163 -185 c129 -260 160 -363 161 -518 0
-105 -3 -122 -33 -205 -34 -94 -118 -264 -172 -349 l-31 -49 -39 63 c-92 144
-178 347 -199 469 -24 135 26 314 167 598 37 73 69 130 73 128 4 -2 36 -64 73
-137z m-696 -592 c43 -18 110 -49 148 -68 230 -117 354 -294 450 -645 19 -69
37 -128 39 -130 2 -2 11 36 20 85 25 137 62 257 112 360 56 116 148 214 273
290 90 55 266 130 278 118 13 -13 16 -186 4 -249 -37 -192 -134 -326 -327
-450 -82 -53 -228 -127 -299 -152 l-50 -18 -95 32 c-197 66 -387 175 -473 270
-58 65 -113 171 -138 268 -19 73 -40 323 -26 323 3 0 41 -15 84 -34z m-2368
-258 c189 -86 377 -240 474 -385 80 -120 170 -381 241 -698 31 -135 35 -149
40 -144 2 2 14 74 26 159 27 199 44 276 76 358 130 328 334 549 656 709 51 25
109 51 129 58 l37 13 7 -79 c17 -190 -41 -482 -133 -664 -117 -234 -322 -423
-577 -532 -101 -43 -219 -77 -223 -63 -2 5 -16 10 -32 10 -16 0 -59 7 -97 15
-248 52 -461 196 -615 415 -80 114 -116 195 -138 310 -20 110 -55 376 -66 518
l-7 83 59 -22 c32 -12 97 -39 143 -61z m5209 -180 c96 -174 163 -343 182 -462
20 -126 -43 -310 -183 -533 -28 -46 -54 -83 -57 -83 -6 0 -89 132 -132 210
-42 75 -96 221 -107 288 -16 101 15 234 98 417 41 90 132 255 141 255 4 0 30
-42 58 -92z m-2876 -278 c247 -95 407 -222 495 -393 29 -56 114 -301 161 -467
l19 -65 12 75 c33 201 51 267 95 355 115 232 298 389 591 505 41 16 78 30 80
30 9 0 5 -207 -6 -266 -24 -140 -85 -278 -167 -380 -61 -76 -188 -178 -289
-231 -91 -49 -252 -104 -303 -105 -57 0 -235 40 -302 69 -242 104 -421 296
-462 496 -16 79 -56 363 -56 398 0 27 16 24 132 -21z m2261 -336 c66 -24 177
-86 238 -133 140 -110 246 -305 319 -591 14 -54 23 -42 39 55 17 101 75 266
120 343 79 135 224 246 430 329 125 50 119 54 120 -87 2 -262 -129 -439 -439
-595 -52 -26 -128 -60 -168 -75 l-74 -27 -111 37 c-141 46 -281 113 -374 179
-156 110 -234 266 -250 498 -8 125 -7 128 59 102 29 -12 70 -27 91 -35z
m-4733 -181 c177 -72 332 -173 452 -294 167 -168 231 -309 348 -769 40 -159
49 -185 67 -188 18 -3 21 4 27 64 49 479 250 825 616 1063 64 42 265 144 307
156 20 5 21 2 28 -87 8 -114 -14 -312 -49 -450 -83 -319 -268 -564 -561 -741
-69 -42 -225 -108 -302 -127 l-53 -14 0 -563 c0 -494 -2 -563 -15 -563 -13 0
-15 70 -15 569 l0 568 -91 17 c-215 39 -395 140 -559 312 -134 140 -221 294
-251 439 -17 83 -58 406 -74 584 l-7 73 23 -7 c13 -4 62 -23 109 -42z m2468
-209 c264 -99 446 -240 527 -408 37 -78 120 -319 151 -443 10 -40 21 -73 25
-73 4 0 10 26 14 58 14 114 47 258 73 317 85 192 224 344 417 455 90 51 264
124 273 115 4 -4 7 -55 6 -113 -2 -395 -238 -699 -645 -832 -105 -35 -118 -36
-226 -16 -216 38 -403 142 -528 293 -111 134 -133 199 -169 488 -9 72 -19 145
-22 163 -3 17 -2 32 1 32 3 0 50 -16 103 -36z m2157 -252 c248 -88 431 -224
509 -380 42 -83 105 -256 141 -385 15 -53 30 -95 32 -93 3 2 16 63 29 135 28
152 47 206 106 304 50 84 178 217 263 274 79 53 190 108 296 148 l87 32 6 -55
c10 -87 -14 -240 -55 -344 -92 -236 -337 -431 -637 -508 -75 -19 -77 -19 -186
0 -225 39 -371 114 -512 262 -129 136 -151 200 -199 596 l-7 53 29 -7 c15 -4
60 -18 98 -32z m-2050 -559 c183 -92 321 -218 389 -358 35 -72 128 -342 156
-453 16 -63 42 -54 53 18 24 154 48 242 90 327 106 211 258 358 487 472 52 27
118 56 145 66 28 10 55 22 62 27 16 13 21 -75 11 -198 -27 -336 -206 -593
-523 -752 -60 -30 -242 -92 -270 -92 -13 0 -15 -97 -15 -789 l0 -789 138 -75
c625 -340 913 -474 1187 -552 155 -44 248 -57 420 -57 173 0 236 -6 242 -25
16 -47 -617 -243 -977 -302 -339 -55 -623 -57 -913 -5 -230 40 -415 111 -777
295 -382 195 -490 236 -685 260 -166 20 -306 -5 -365 -66 -34 -35 -35 -39 -35
-113 0 -70 4 -85 43 -164 88 -182 287 -403 473 -528 274 -183 636 -301 1074
-350 130 -14 489 -12 635 4 459 52 890 175 1555 444 l120 48 3 970 2 970 -82
14 c-217 34 -408 134 -545 284 -113 124 -135 178 -172 424 -33 214 -35 252
-18 252 29 0 192 -62 280 -106 121 -61 170 -95 257 -183 58 -59 85 -96 117
-162 39 -80 117 -298 143 -396 7 -30 16 -43 28 -43 15 0 22 21 41 124 45 247
179 444 403 592 78 51 219 120 308 150 30 10 58 23 62 28 13 19 20 -125 9
-208 -36 -272 -157 -460 -390 -611 -110 -71 -256 -130 -393 -160 l-28 -5 0
-960 c0 -528 3 -960 6 -960 3 0 72 28 152 61 503 210 683 264 1007 303 273 34
486 29 746 -15 240 -41 476 -116 448 -143 -3 -3 -48 -12 -100 -20 -345 -52
-923 -276 -1319 -511 -161 -95 -266 -165 -503 -332 -419 -296 -617 -418 -942
-578 -548 -270 -1080 -423 -1625 -466 -180 -14 -607 -6 -780 16 -536 66 -1057
223 -1541 466 -431 215 -977 588 -1547 1057 -559 459 -1153 842 -1512 975
-167 62 -381 98 -686 117 -166 10 -209 20 -219 51 -46 145 738 557 1855 974
426 159 664 218 1030 257 182 19 627 16 815 -6 396 -46 710 -126 1035 -266
270 -115 1104 -535 1436 -721 28 -16 54 -26 57 -22 4 3 7 354 7 780 0 610 -3
774 -12 777 -7 2 -53 11 -103 20 -183 35 -341 120 -472 252 -105 108 -162 204
-184 315 -20 96 -59 381 -59 429 l0 29 88 -30 c48 -17 128 -51 177 -76z m2095
-140 c177 -66 290 -135 392 -240 91 -95 152 -225 229 -488 17 -61 34 -113 38
-117 4 -4 19 59 34 139 25 130 34 159 80 248 43 83 68 116 147 196 52 53 121
112 153 132 124 79 346 175 369 161 15 -10 3 -215 -18 -294 -64 -245 -238
-433 -505 -546 -136 -57 -221 -75 -307 -63 -236 33 -428 128 -564 279 -112
123 -136 191 -176 497 l-19 143 26 -6 c14 -4 69 -22 121 -41z"/>
<path d="M10673 9099 c-296 -38 -487 -200 -550 -466 -16 -71 -18 -135 -18
-738 0 -604 2 -667 18 -738 54 -229 202 -382 434 -449 68 -20 101 -23 258 -23
157 0 190 3 258 23 264 76 411 247 447 522 8 58 10 287 8 720 -4 709 -2 681
-78 835 -42 88 -127 179 -210 228 -134 77 -365 113 -567 86z m210 -438 c90
-21 155 -100 177 -216 8 -42 10 -220 8 -585 -3 -493 -4 -528 -23 -580 -24 -68
-85 -131 -141 -148 -62 -18 -142 -15 -194 9 -58 26 -77 44 -105 99 -44 86 -46
133 -43 690 3 517 3 526 25 580 50 123 165 181 296 151z"/>
<path d="M8525 9085 c-242 -53 -416 -210 -495 -445 -19 -56 -50 -209 -50 -247
0 -10 53 -13 234 -13 l233 0 7 42 c10 60 42 127 79 167 48 50 100 71 183 71
159 0 247 -100 216 -247 -23 -112 -72 -185 -501 -748 l-420 -550 -1 -207 0
-208 705 0 705 0 0 220 0 220 -399 2 -400 3 286 360 c157 198 303 386 324 417
149 218 212 511 157 738 -19 81 -73 183 -127 242 -123 134 -305 199 -554 197
-67 0 -149 -7 -182 -14z"/>
<path d="M12745 9083 c-178 -38 -340 -156 -432 -315 -46 -78 -103 -282 -103
-364 l0 -24 234 0 234 0 7 46 c22 148 118 234 259 234 204 -1 279 -157 176
-367 -18 -35 -216 -306 -455 -620 l-425 -558 0 -207 0 -208 705 0 705 0 0 220
0 220 -400 2 -400 3 299 378 c326 411 343 435 397 551 78 171 110 404 75 566
-50 238 -226 398 -491 446 -98 17 -297 16 -385 -3z"/>
<path d="M14912 9038 c-10 -24 -175 -383 -365 -799 l-347 -756 0 -207 0 -206
480 0 480 0 0 -185 0 -185 225 0 225 0 0 185 0 185 95 0 95 0 -2 218 -3 217
-92 3 -93 3 0 294 0 295 -225 0 -225 0 0 -295 0 -295 -210 0 -209 0 28 63
c531 1176 671 1488 671 1496 0 8 -82 11 -255 11 l-254 0 -19 -42z"/>
<path d="M10880 5437 c0 -620 -2 -705 -16 -725 -13 -19 -24 -22 -88 -22 l-74
0 -46 133 c-55 160 -346 1019 -346 1024 0 2 -63 3 -140 3 -77 0 -140 -2 -140
-5 0 -3 86 -260 190 -572 105 -311 190 -569 190 -574 0 -5 -128 -9 -285 -9
l-285 0 0 -51 c0 -47 4 -56 61 -125 l61 -75 516 3 c569 3 545 1 615 66 17 17
31 23 35 16 4 -6 20 -27 36 -48 l29 -37 456 3 c315 2 464 7 482 15 20 9 39 8
85 -3 46 -11 164 -14 541 -14 533 0 533 0 601 64 l34 31 40 -47 40 -48 297 0
297 0 52 26 c57 28 96 69 123 129 17 38 19 86 19 793 l0 752 -145 0 -145 0 0
-705 c0 -692 0 -705 -20 -725 -19 -19 -33 -20 -260 -20 l-240 0 0 725 0 725
-150 0 -150 0 0 -708 c0 -674 -1 -710 -18 -725 -16 -15 -50 -17 -275 -17 -141
0 -257 2 -257 4 0 2 12 25 26 51 60 107 83 309 49 438 -45 171 -181 310 -354
361 -71 21 -237 21 -316 1 -168 -44 -308 -191 -350 -366 -31 -135 -14 -315 42
-422 16 -28 29 -55 31 -59 2 -5 -120 -8 -272 -8 l-276 0 0 725 0 725 -150 0
-150 0 0 -703z m1377 -146 c98 -45 159 -207 133 -352 -21 -115 -73 -189 -160
-228 -58 -26 -74 -26 -136 3 -120 56 -183 205 -154 365 13 73 46 145 82 178
57 54 159 68 235 34z"/>
<path d="M16490 5388 c0 -844 -4 -794 74 -871 76 -76 40 -72 636 -75 294 -1
545 0 557 3 12 3 36 17 53 32 20 16 34 22 38 16 4 -6 23 -20 42 -32 34 -21 43
-21 561 -21 605 0 588 -2 664 82 78 86 75 55 75 885 l0 733 -150 0 -150 0 0
-708 c0 -674 -1 -710 -18 -725 -17 -15 -58 -17 -385 -17 -262 0 -367 3 -367
11 0 27 68 134 120 192 32 34 89 82 128 107 49 31 75 56 87 81 16 35 16 37
-15 102 -65 139 -170 244 -310 313 -127 63 -284 81 -435 49 -92 -19 -236 -92
-307 -155 -59 -52 -130 -152 -163 -228 -26 -59 -9 -109 45 -136 96 -47 210
-164 265 -274 14 -28 25 -53 25 -56 0 -11 -730 -7 -751 4 -19 10 -19 29 -19
725 l0 715 -150 0 -150 0 0 -752z m1505 -112 c53 -24 155 -113 155 -136 0 -4
-11 -12 -23 -17 -72 -33 -212 -197 -262 -306 l-26 -56 -39 75 c-51 98 -140
207 -212 258 -31 23 -57 44 -57 49 -2 16 85 100 124 119 110 57 235 62 340 14z"/>
<path d="M19500 5260 l0 -880 79 0 78 0 72 57 71 56 0 824 0 823 -150 0 -150
0 0 -880z"/>
<path d="M21782 5388 l3 -753 22 -41 c35 -65 70 -101 126 -129 l53 -25 1079 2
c1190 3 1100 -2 1169 64 l28 27 34 -39 c18 -21 33 -42 34 -46 0 -12 1169 -10
1212 2 57 16 119 69 150 129 l28 53 0 220 c0 248 -8 298 -67 410 -45 87 -153
191 -244 235 -95 47 -175 63 -319 63 -118 0 -182 -10 -387 -57 -22 -5 -23 -9
-23 -124 0 -76 4 -119 10 -119 6 0 64 10 128 21 322 59 516 -7 588 -201 22
-60 26 -348 5 -373 -12 -16 -62 -17 -551 -17 l-538 0 -4 208 c-3 184 -6 214
-26 271 -52 146 -154 257 -297 326 -49 24 -112 48 -140 53 -250 51 -500 -3
-710 -153 -55 -40 -175 -155 -224 -215 l-20 -25 -1 193 0 192 -150 0 -150 0 0
-425 0 -425 -240 0 c-227 0 -241 1 -260 20 -20 20 -20 33 -20 725 l0 705 -150
0 -151 0 3 -752z m2010 -108 c109 -40 184 -116 213 -213 10 -35 15 -97 15
-203 0 -141 -2 -154 -19 -164 -29 -15 -1091 -14 -1091 2 0 20 91 181 142 250
53 73 184 201 255 249 148 102 340 133 485 79z"/>
<path d="M26960 5431 c0 -632 -2 -711 -16 -725 -11 -12 -35 -16 -88 -16 l-72
0 -195 578 -196 577 -143 3 c-133 2 -142 1 -135 -15 3 -10 91 -271 195 -580
l189 -563 -284 0 -285 0 0 -54 c0 -49 4 -58 57 -125 l56 -71 501 0 c330 0 515
4 541 11 58 16 148 110 163 171 9 34 12 253 12 782 l0 736 -150 0 -150 0 0
-709z"/>
<path d="M27580 5260 l0 -880 76 0 76 0 74 61 74 60 0 820 0 819 -150 0 -150
0 0 -880z"/>
<path d="M7615 6045 c-139 -50 -130 -253 12 -295 59 -18 108 -6 156 39 37 35
41 43 45 97 3 50 0 64 -20 93 -48 70 -118 94 -193 66z"/>
<path d="M7985 6050 c-17 -5 -46 -25 -64 -44 -64 -66 -51 -189 25 -236 71 -45
145 -35 204 25 29 30 34 43 38 92 3 48 0 64 -20 92 -12 19 -34 42 -48 52 -31
23 -95 31 -135 19z"/>
<path d="M12122 6053 c-12 -3 -40 -21 -61 -41 -67 -64 -68 -157 -2 -223 51
-52 111 -61 178 -28 59 30 85 72 85 139 0 107 -87 174 -200 153z"/>
<path d="M7992 5564 l-43 -36 -82 21 c-97 25 -236 28 -313 7 -183 -49 -344
-225 -385 -421 -17 -82 -14 -235 5 -319 22 -92 79 -198 142 -263 106 -108 281
-161 433 -129 71 15 158 52 192 82 14 13 23 10 68 -20 28 -19 70 -38 94 -41
23 -3 339 -5 702 -3 733 3 685 -1 758 72 67 66 72 88 75 321 3 166 0 225 -13
279 -45 196 -175 340 -373 414 -55 20 -90 26 -203 30 -140 5 -200 -2 -361 -39
l-88 -21 0 -119 c0 -135 -8 -127 97 -105 37 8 111 19 164 26 216 25 383 -47
451 -195 20 -45 23 -68 26 -219 3 -154 2 -171 -14 -183 -14 -10 -131 -13 -560
-13 l-543 0 -15 22 c-14 20 -16 80 -16 455 l0 433 -77 0 c-75 0 -80 -2 -121
-36z m-192 -254 c25 -6 55 -12 68 -15 l22 -5 0 -299 0 -298 -47 -14 c-27 -8
-82 -14 -124 -14 -63 1 -83 5 -120 27 -59 35 -83 62 -113 128 -54 117 -42 273
29 375 41 59 88 94 153 111 58 16 75 16 132 4z"/>
<path d="M15563 5546 c-89 -22 -181 -74 -247 -140 -101 -101 -146 -221 -146
-386 0 -112 20 -204 59 -276 l28 -52 -48 -5 c-89 -11 -166 -68 -207 -155 -15
-34 -17 -81 -17 -507 l0 -470 71 -3 72 -3 76 61 76 60 0 365 c0 352 1 366 20
385 19 19 33 20 363 20 383 0 387 1 460 74 72 72 72 69 75 389 3 237 0 298
-13 349 -37 144 -150 252 -308 294 -64 17 -243 17 -314 0z m224 -247 c34 -13
80 -55 99 -91 21 -41 20 -490 -1 -508 -10 -9 -46 -11 -122 -8 -118 4 -167 21
-218 75 -105 111 -110 343 -10 460 19 23 54 50 77 62 47 23 128 28 175 10z"/>
<path d="M20964 5525 c-181 -39 -320 -175 -365 -355 -17 -71 -17 -239 0 -310
21 -84 67 -173 118 -230 37 -41 43 -54 32 -61 -8 -5 -17 -9 -22 -9 -6 0 -161
-86 -195 -108 -11 -7 0 -32 49 -108 34 -54 67 -104 73 -111 8 -8 27 -1 76 29
186 116 431 196 655 215 l76 6 60 73 c56 69 59 75 59 128 l0 56 -57 0 c-32 0
-136 -7 -230 -17 -143 -14 -181 -15 -220 -5 -75 20 -124 59 -158 127 -27 54
-30 69 -30 155 1 81 5 104 27 151 29 64 72 101 143 126 38 12 71 15 161 10
l114 -5 0 118 0 118 -75 11 c-98 14 -214 13 -291 -4z"/>
<path d="M26690 4198 c-69 -38 -104 -94 -108 -178 -3 -46 1 -85 11 -115 l16
-45 -45 0 -44 0 0 -65 0 -65 218 0 217 0 28 34 c16 21 27 47 27 65 l0 29 -106
4 c-105 3 -106 3 -135 36 -42 47 -41 111 2 154 29 30 32 30 95 24 l64 -7 0 65
c0 37 -5 68 -11 72 -6 4 -50 9 -98 11 -77 4 -91 2 -131 -19z"/>
<path d="M7488 3351 c-82 -27 -138 -62 -196 -126 -143 -156 -135 -423 18 -575
143 -144 409 -170 598 -57 l52 31 0 168 0 168 -75 0 -75 0 0 -125 0 -124 -32
-18 c-25 -14 -56 -18 -133 -18 -116 0 -156 16 -218 84 -52 58 -70 104 -71 187
0 61 4 80 29 130 54 104 166 163 287 150 59 -6 143 -41 167 -70 21 -25 33 -20
85 33 l48 49 -29 26 c-43 42 -102 73 -168 90 -80 21 -215 20 -287 -3z"/>
<path d="M14508 3351 c-189 -61 -298 -209 -298 -407 0 -169 85 -306 235 -375
141 -66 304 -62 453 11 l82 41 0 169 0 170 -80 0 -80 0 0 -129 0 -129 -32 -13
c-20 -9 -70 -14 -128 -14 -113 0 -154 17 -219 91 -123 140 -75 360 94 435 114
50 214 34 337 -53 15 -11 25 -6 68 37 l50 49 -27 28 c-39 41 -102 75 -169 93
-79 21 -215 19 -286 -4z"/>
<path d="M16628 3351 c-32 -11 -80 -33 -108 -51 -218 -140 -250 -470 -64 -654
127 -125 349 -160 519 -82 56 25 125 81 125 100 0 7 -15 26 -32 42 -65 60 -63
59 -107 25 -113 -89 -282 -81 -381 19 -113 112 -107 297 13 407 100 92 246 96
366 10 l49 -35 46 47 c25 26 46 52 46 58 0 14 -62 64 -110 88 -93 48 -257 59
-362 26z"/>
<path d="M23367 3350 c-126 -40 -234 -145 -271 -264 -28 -88 -19 -241 18 -323
35 -78 123 -164 202 -199 165 -73 373 -47 493 61 l42 38 -48 49 c-26 26 -51
48 -55 48 -4 0 -28 -16 -53 -35 -54 -40 -100 -55 -176 -55 -171 0 -289 127
-277 299 6 82 33 136 92 188 104 91 255 95 368 9 l45 -35 52 53 53 53 -44 35
c-87 71 -169 98 -298 97 -54 0 -106 -7 -143 -19z"/>
<path d="M25843 3353 c-120 -41 -183 -118 -183 -226 0 -77 24 -133 73 -168 38
-27 79 -42 274 -98 113 -33 155 -82 122 -143 -41 -76 -256 -75 -382 2 -27 17
-50 30 -51 30 -2 0 -16 -28 -31 -62 l-28 -62 26 -22 c68 -58 256 -96 381 -76
167 26 256 111 256 245 0 124 -67 183 -272 237 -133 35 -152 42 -185 73 -42
38 -23 101 40 134 65 34 251 10 315 -40 17 -13 24 -5 51 63 26 64 24 66 -68
101 -79 30 -264 36 -338 12z"/>
<path d="M27517 3360 c-198 -50 -274 -259 -141 -387 45 -44 107 -68 270 -107
121 -29 170 -76 142 -134 -22 -44 -60 -64 -135 -69 -82 -6 -172 14 -252 57
-30 17 -55 29 -56 27 -18 -32 -52 -123 -49 -129 9 -14 97 -56 159 -74 89 -27
261 -24 337 5 78 30 133 86 153 156 40 137 -22 232 -182 280 -46 14 -121 36
-167 50 -61 18 -91 33 -105 51 -25 32 -26 46 -6 84 19 36 40 48 109 61 64 11
168 -7 236 -41 23 -12 43 -20 44 -18 2 2 13 29 26 61 28 70 24 76 -65 108 -68
25 -252 35 -318 19z"/>
<path d="M8150 2945 l0 -415 310 0 310 0 0 70 0 70 -230 0 -230 0 0 110 0 110
195 0 195 0 0 65 0 65 -195 0 -195 0 0 100 0 100 220 0 220 0 0 70 0 70 -300
0 -300 0 0 -415z"/>
<path d="M8930 2945 l0 -415 80 0 80 0 2 270 3 270 219 -270 220 -270 68 0 68
0 0 415 0 415 -80 0 -80 0 -2 -270 -3 -271 -220 271 -219 270 -68 0 -68 0 0
-415z"/>
<path d="M9880 2945 l0 -415 310 0 310 0 0 70 0 70 -230 0 -230 0 0 110 0 110
195 0 195 0 0 65 0 65 -195 0 -195 0 0 100 0 100 220 0 220 0 0 70 0 70 -300
0 -300 0 0 -415z"/>
<path d="M10660 2946 l0 -416 80 0 80 0 0 120 0 120 103 0 103 0 84 -120 84
-120 83 0 c50 0 83 4 83 10 0 6 -40 68 -89 138 l-90 127 27 14 c41 20 91 71
115 116 18 32 22 57 22 130 0 81 -3 95 -29 143 -33 60 -76 96 -150 126 -45 18
-77 21 -278 24 l-228 4 0 -416z m440 252 c63 -33 84 -67 84 -133 0 -66 -21
-100 -84 -132 -39 -20 -60 -23 -162 -23 l-118 0 0 155 0 155 118 0 c102 0 123
-3 162 -22z"/>
<path d="M11751 3338 c-5 -13 -86 -194 -181 -403 -94 -209 -174 -386 -177
-393 -4 -10 14 -12 81 -10 l87 3 38 90 37 90 204 0 203 0 40 -92 39 -93 84 0
c46 0 84 3 84 8 0 4 -83 189 -183 412 l-183 405 -82 3 c-78 3 -83 2 -91 -20z
m156 -306 c34 -81 65 -155 69 -164 6 -17 -5 -18 -136 -18 -131 0 -142 1 -136
18 22 59 132 312 136 312 3 0 33 -67 67 -148z"/>
<path d="M12380 2945 l0 -415 295 0 295 0 0 70 0 70 -210 0 -210 0 0 345 0
345 -85 0 -85 0 0 -415z"/>
<path d="M13472 2952 c-100 -224 -182 -410 -182 -414 0 -5 37 -8 83 -8 l82 0
39 95 40 95 201 0 200 0 40 -92 40 -93 83 -3 c59 -2 82 1 82 9 0 7 -82 194
-182 416 l-182 403 -80 0 -81 0 -183 -408z m332 -100 c-41 -2 -106 -2 -143 0
l-68 3 71 166 71 166 72 -166 72 -166 -75 -3z"/>
<path d="M15170 2946 l0 -416 80 0 80 0 0 120 0 120 104 0 104 0 83 -120 83
-120 83 0 c60 0 83 3 83 13 -1 6 -41 68 -89 137 l-89 125 47 27 c141 81 164
313 44 433 -78 78 -122 89 -385 93 l-228 4 0 -416z m436 255 c107 -49 123
-180 31 -255 -38 -31 -40 -31 -173 -34 l-134 -4 0 156 0 156 118 0 c92 0 126
-4 158 -19z"/>
<path d="M16020 2950 l0 -410 80 0 80 0 0 410 0 410 -80 0 -80 0 0 -410z"/>
<path d="M17232 3063 c3 -297 3 -298 29 -354 66 -139 219 -210 399 -182 128
20 210 77 259 182 26 56 26 56 29 354 l3 297 -80 0 -81 0 0 -262 c0 -150 -5
-279 -10 -300 -14 -48 -55 -97 -97 -114 -18 -8 -61 -14 -95 -14 -81 0 -133 28
-168 90 -25 45 -25 48 -28 323 l-3 277 -80 0 -80 0 3 -297z"/>
<path d="M18160 2945 l0 -415 290 0 290 0 0 70 0 70 -210 0 -210 0 0 345 0
345 -80 0 -80 0 0 -415z"/>
<path d="M18670 3290 l0 -70 135 0 135 0 0 -345 0 -345 85 0 85 0 0 345 0 345
135 0 135 0 0 70 0 70 -355 0 -355 0 0 -70z"/>
<path d="M19462 3068 c5 -346 8 -360 97 -448 74 -73 133 -94 261 -94 166 -1
263 51 322 171 l33 68 3 297 3 298 -80 0 -81 0 0 -262 c0 -150 -5 -279 -10
-300 -14 -48 -55 -97 -97 -114 -18 -8 -61 -14 -95 -14 -86 0 -134 28 -168 95
-25 49 -25 55 -28 323 l-3 272 -80 0 -80 0 3 -292z"/>
<path d="M20390 2945 l0 -415 80 0 80 0 0 120 0 120 103 0 103 0 83 -120 83
-120 84 0 c47 0 84 4 84 10 0 5 -40 67 -90 137 l-90 128 33 17 c147 75 182
313 66 438 -76 81 -155 100 -416 100 l-203 0 0 -415z m435 256 c73 -34 105
-97 85 -173 -25 -92 -77 -117 -242 -118 l-118 0 0 155 0 155 118 0 c92 0 126
-4 157 -19z"/>
<path d="M21471 3318 c-10 -24 -92 -205 -181 -403 -89 -198 -164 -366 -167
-372 -4 -10 16 -13 80 -13 l85 0 39 93 40 92 202 0 202 0 41 -92 41 -93 83 0
c46 0 84 3 84 8 -1 4 -83 189 -184 412 l-183 405 -82 3 -81 3 -19 -43z m173
-304 c36 -84 66 -155 66 -158 0 -3 -63 -6 -141 -6 -130 0 -141 1 -135 18 33
88 132 309 138 304 3 -4 36 -75 72 -158z"/>
<path d="M22110 2945 l0 -415 295 0 295 0 0 70 0 70 -215 0 -215 0 0 345 0
345 -80 0 -80 0 0 -415z"/>
<path d="M23980 2945 l0 -415 310 0 310 0 0 70 0 70 -230 0 -230 0 0 110 0
110 200 0 200 0 0 65 0 65 -200 0 -200 0 0 100 0 100 225 0 225 0 0 70 0 70
-305 0 -305 0 0 -415z"/>
<path d="M24760 2945 l0 -415 80 0 80 0 2 271 3 272 220 -271 220 -271 68 -1
67 0 0 415 0 415 -80 0 -80 0 -2 -268 -3 -268 -218 268 -218 268 -70 0 -69 0
0 -415z"/>
<path d="M26440 3082 c0 -306 6 -349 60 -427 61 -89 151 -128 295 -129 133 -1
190 19 266 94 89 88 92 102 97 448 l4 292 -81 0 -80 0 -3 -277 c-3 -275 -3
-278 -28 -323 -38 -68 -87 -91 -181 -88 -65 3 -81 7 -112 31 -71 54 -72 59
-75 375 l-3 282 -80 0 -79 0 0 -278z"/>
</g>
</svg>
